<svg width="303" height="45" viewBox="0 0 303 45" fill="none" xmlns="http://www.w3.org/2000/svg">
<rect width="303" height="45" fill="#E5E5E5"/>
<g clip-path="url(#clip0_0_1)">
<rect width="375" height="812" transform="translate(-36 -428)" fill="white"/>
<rect x="-36" y="-384" width="375" height="3365" fill="black"/>
<rect width="303" height="45" rx="5.625" fill="#C4C4C4"/>
<path d="M150.587 15.5824V30H153.165V25.2341H156.083C159 25.2341 161.048 23.2858 161.048 20.4083C161.048 17.5307 159.06 15.5824 156.192 15.5824H150.587ZM153.165 17.6906H155.513C157.361 17.6906 158.431 18.6797 158.431 20.4083C158.431 22.1568 157.351 23.1559 155.503 23.1559H153.165V17.6906ZM162.696 30H165.183V15.5824H162.696V30ZM171.107 28.2915C170.028 28.2915 169.309 27.7419 169.309 26.8727C169.309 26.0334 169.998 25.4939 171.197 25.4139L173.645 25.2641V26.0734C173.645 27.3523 172.516 28.2915 171.107 28.2915ZM170.358 30.1699C171.717 30.1699 173.045 29.4605 173.655 28.3115H173.705V30H176.103V22.7063C176.103 20.5781 174.394 19.1893 171.767 19.1893C169.069 19.1893 167.38 20.6081 167.27 22.5864H169.578C169.738 21.7071 170.488 21.1376 171.667 21.1376C172.896 21.1376 173.645 21.7771 173.645 22.8861V23.6455L170.847 23.8053C168.27 23.9652 166.821 25.0942 166.821 26.9726C166.821 28.881 168.31 30.1699 170.358 30.1699ZM179.189 33.9366C181.607 33.9366 182.776 33.0474 183.685 30.4196L187.512 19.4091H184.894L182.396 27.8818H182.356L179.858 19.4091H177.141L180.907 30.01C180.917 30.04 180.768 30.5695 180.768 30.5995C180.488 31.5786 179.958 31.9683 178.929 31.9683C178.779 31.9683 178.34 31.9583 178.21 31.9283V33.8966C178.34 33.9266 179.049 33.9366 179.189 33.9366Z" fill="black"/>
<path d="M116 12V33.6L134 22.8L116 12Z" fill="black"/>
</g>
<defs>
<clipPath id="clip0_0_1">
<rect width="375" height="812" fill="white" transform="translate(-36 -428)"/>
</clipPath>
</defs>
</svg>
